<?xml version="1.0" encoding="utf-8"?>
<!-- Generator: Adobe Illustrator 21.0.0, SVG Export Plug-In . SVG Version: 6.00 Build 0)  -->
<svg version="1.1" id="Слой_1" xmlns="http://www.w3.org/2000/svg" xmlns:xlink="http://www.w3.org/1999/xlink" x="0px" y="0px"
	 viewBox="0 0 735 420.3" style="enable-background:new 0 0 735 420.3;" xml:space="preserve" width="735" height="420.3">
<style type="text/css">
	.st0{fill:#E83B44;}
	.st1{fill-rule:evenodd;clip-rule:evenodd;fill:#E83B44;}
</style>
<g>
	<path class="st0" d="M546.4,294.5V102.9c0-4.3,3.4-7.7,7.7-7.7h19.2c4.2,0,7.7,3.4,7.7,7.7v192.4c16.3,9.3,27.5,30.9,27.1,56.3
		c-0.5,34.2-21.6,62.1-47.2,62.4c-25.6,0.4-46-27-45.5-61.2C515.8,326.3,528.7,303.5,546.4,294.5 M561.8,400.9
		c20.5,0,36.6-20,36.5-44.2c0-3.2-2.6-5.8-5.8-5.8c-3.2,0-5.8,2.6-5.8,5.8c0,18.3-11.5,32.7-25,32.7c-3.2,0-5.8,2.6-5.8,5.8
		C556,398.3,558.6,400.9,561.8,400.9"/>
	<path class="st1" d="M11.9,292c-4.2,0-7.7-3.4-7.7-7.7V144.4c0-35.3,17.1-53.1,45.6-53.1c11.9,0,23,3.1,30.5,7.6
		c0.8,0.5,3.4,3.1,3.8,4.5c0.3,1.1,0.5,2.2,0.1,3.1c-2,4.5-5.6,12.5-7.7,17.3c-0.6,1.4-3.1,3.2-5.8,1.4c-4.1-2.9-9.4-3.3-14.9-3.3
		c-11.1,0-18.8,7.6-18.8,25.1V165h27c4.3,0,7.7,3.4,7.7,7.7v15.1c0,4.3-3.5,7.7-7.7,7.7H37v88.9c0,4.2-3.4,7.7-7.7,7.7H11.9z
		 M79.1,228.5c0-38.1,27.4-66.6,69.8-66.6c42.4,0,69.8,28.5,69.8,66.6c0,38.1-27.4,66.6-69.8,66.6
		C106.5,295.1,79.1,266.6,79.1,228.5 M114.2,228.5c0,21.2,14.8,36.4,34.8,36.4c20.2,0,35-14.4,35-36.4c0-21.5-15.1-36.1-35-36.1
		C129.6,192.4,114.2,206.5,114.2,228.5 M712.7,260.4c1.6,3.9,4.3,10.4,6,14.6c1,2.5-0.8,6.4-2.2,7.3c-12.5,8.7-28.9,12.8-45,12.8
		c-41.3,0-68.9-26.5-68.9-66.6c0-37,25.6-66.6,67.8-66.6c33,0,60.7,23.4,60.7,59c0,4.6-0.2,8.2-0.6,11.3c0,0.3-0.7,2.9-2.2,4.5
		c-1.5,1.6-3.4,1.7-4.2,1.7h-87.5c2.8,19.2,18.2,29.6,38.5,29.6c13.5,0,25-4.2,32.7-9.1C708.9,258.1,712.1,259.1,712.7,260.4
		 M669.4,190.1c-19.7,0-30.2,11-33.6,27.7h63C699,202.3,688.2,190.1,669.4,190.1"/>
	<path class="st1" d="M308,229.8v-40.4c0-3.2-2.6-5.8-5.8-5.8c-3.2,0-5.8,2.6-5.8,5.8v46.1c0,1.6,0.6,3,1.7,4.1c1,1,2.5,1.7,4.1,1.7
		h34.6c3.2,0,5.8-2.6,5.8-5.8c0-3.2-2.6-5.8-5.8-5.8H308z M232.4,228.5c0-38.1,27.4-66.6,69.8-66.6c42.5,0,69.8,28.5,69.8,66.6
		c0,38.1-27.4,66.6-69.8,66.6C259.7,295.1,232.4,266.6,232.4,228.5"/>
	<path class="st1" d="M482.8,126.1c-14.6-4.7-24.8-15.7-24.8-28l0-86c0-3,2.4-5.3,5.3-5.3c3,0,5.4,2.4,5.3,5.3l0,64.4
		c0,3.5,2.9,6.4,6.4,6.4c3.5,0,6.4-2.9,6.4-6.4l0-64.4c0-3,2.4-5.4,5.3-5.4c2.9,0,5.3,2.4,5.3,5.3l0,64.4c0,3.5,2.9,6.4,6.4,6.4
		c3.5,0,6.4-2.9,6.4-6.4l0-64.4c0-2.9,2.4-5.3,5.3-5.3c3,0,5.3,2.4,5.3,5.3l0,64.4c0,3.5,2.9,6.4,6.4,6.4c3.5,0,6.4-2.9,6.4-6.4
		l0-64.4c0-2.9,2.4-5.3,5.3-5.3c3,0,5.4,2.4,5.4,5.4v86c0,12-9.7,22.7-23.7,27.6v158.6c0,4.2-3.4,7.7-7.7,7.7h-17.4
		c-4.2,0-7.7-3.4-7.7-7.7v-5.5c-8.5,9-20.2,15.5-36.8,15.5c-36.8,0-60.4-25.7-60.4-64.4c0-40.1,29.1-68,70.4-68
		c11.4,0,19.7,2,26.8,6.2V126.1z M452.8,264.1c12,0,22.5-5.6,29.9-13V200c-8.3-5.1-16.5-7.6-25.4-7.6c-19.4,0-36.8,13-36.8,36.4
		C420.6,251.4,435.5,264.1,452.8,264.1"/>
</g>
</svg>
